<?xml version="1.0" encoding="UTF-8" standalone="no"?>
<!DOCTYPE svg PUBLIC "-//W3C//DTD SVG 1.1//EN"
 "http://www.w3.org/Graphics/SVG/1.1/DTD/svg11.dtd">
<!-- Generated by graphviz version 5.0.0 (20220707.1540)
 -->
<!-- Title: dependencies Pages: 1 -->
<svg width="308pt" height="174pt"
 viewBox="0.00 0.00 308.00 173.80" xmlns="http://www.w3.org/2000/svg" xmlns:xlink="http://www.w3.org/1999/xlink">
<g id="graph0" class="graph" transform="scale(1 1) rotate(0) translate(4 169.8)">
<title>dependencies</title>
<polygon fill="white" stroke="transparent" points="-4,4 -4,-169.8 304,-169.8 304,4 -4,4"/>
<text text-anchor="middle" x="150" y="-8.2" font-family="sans-serif" font-size="14.00">dependencies</text>
<g id="clust1" class="cluster">
<title>cluster_SaladModule</title>
<polygon fill="none" stroke="black" stroke-dasharray="1,5" points="8,-32.8 8,-157.8 292,-157.8 292,-32.8 8,-32.8"/>
</g>
<g id="clust3" class="cluster">
<title>cluster_SaladModule_imports</title>
<polygon fill="none" stroke="black" points="162,-40.8 162,-92.8 284,-92.8 284,-40.8 162,-40.8"/>
</g>
<g id="clust6" class="cluster">
<title>cluster_SaladModule_providers</title>
<polygon fill="none" stroke="black" points="16,-40.8 16,-92.8 154,-92.8 154,-40.8 16,-40.8"/>
</g>
<!-- ToppingModule -->
<g id="node1" class="node">
<title>ToppingModule</title>
<polygon fill="#8dd3c7" stroke="black" points="276.49,-84.8 273.49,-88.8 252.49,-88.8 249.49,-84.8 169.51,-84.8 169.51,-48.8 276.49,-48.8 276.49,-84.8"/>
<text text-anchor="middle" x="223" y="-62.6" font-family="Times,serif" font-size="14.00">ToppingModule</text>
</g>
<!-- SaladModule -->
<g id="node2" class="node">
<title>SaladModule</title>
<polygon fill="#8dd3c7" stroke="black" points="199.16,-149.8 196.16,-153.8 175.16,-153.8 172.16,-149.8 108.84,-149.8 108.84,-113.8 199.16,-113.8 199.16,-149.8"/>
<text text-anchor="middle" x="154" y="-127.6" font-family="Times,serif" font-size="14.00">SaladModule</text>
</g>
<!-- ToppingModule&#45;&gt;SaladModule -->
<g id="edge1" class="edge">
<title>ToppingModule&#45;&gt;SaladModule</title>
<path fill="none" stroke="black" d="M184.42,-84.91C184.42,-84.91 184.42,-103.79 184.42,-103.79"/>
<polygon fill="black" stroke="black" points="180.92,-103.79 184.42,-113.79 187.92,-103.79 180.92,-103.79"/>
</g>
<!-- SaladService -->
<g id="node3" class="node">
<title>SaladService</title>
<ellipse fill="#fdb462" stroke="black" cx="85" cy="-66.8" rx="61.4" ry="18"/>
<text text-anchor="middle" x="85" y="-62.6" font-family="Times,serif" font-size="14.00">SaladService</text>
</g>
<!-- SaladService&#45;&gt;SaladModule -->
<g id="edge2" class="edge">
<title>SaladService&#45;&gt;SaladModule</title>
<path fill="none" stroke="black" d="M127.56,-79.95C127.56,-79.95 127.56,-103.49 127.56,-103.49"/>
<polygon fill="black" stroke="black" points="124.06,-103.49 127.56,-113.49 131.06,-103.49 124.06,-103.49"/>
</g>
</g>
</svg>
