<?xml version="1.0" encoding="UTF-8" standalone="no"?>
<!DOCTYPE svg PUBLIC "-//W3C//DTD SVG 1.1//EN"
 "http://www.w3.org/Graphics/SVG/1.1/DTD/svg11.dtd">
<!-- Generated by graphviz version 5.0.0 (20220707.1540)
 -->
<!-- Title: dependencies Pages: 1 -->
<svg width="537pt" height="174pt"
 viewBox="0.00 0.00 537.00 173.80" xmlns="http://www.w3.org/2000/svg" xmlns:xlink="http://www.w3.org/1999/xlink">
<g id="graph0" class="graph" transform="scale(1 1) rotate(0) translate(4 169.8)">
<title>dependencies</title>
<polygon fill="white" stroke="transparent" points="-4,4 -4,-169.8 533,-169.8 533,4 -4,4"/>
<text text-anchor="middle" x="264.5" y="-8.2" font-family="sans-serif" font-size="14.00">dependencies</text>
<g id="clust1" class="cluster">
<title>cluster_AppModule</title>
<polygon fill="none" stroke="black" stroke-dasharray="1,5" points="8,-32.8 8,-157.8 521,-157.8 521,-32.8 8,-32.8"/>
</g>
<g id="clust6" class="cluster">
<title>cluster_AppModule_providers</title>
<polygon fill="none" stroke="black" points="383,-40.8 383,-92.8 513,-92.8 513,-40.8 383,-40.8"/>
</g>
<g id="clust3" class="cluster">
<title>cluster_AppModule_imports</title>
<polygon fill="none" stroke="black" points="16,-40.8 16,-92.8 375,-92.8 375,-40.8 16,-40.8"/>
</g>
<!-- DressingModule -->
<g id="node1" class="node">
<title>DressingModule</title>
<polygon fill="#8dd3c7" stroke="black" points="366.82,-84.8 363.82,-88.8 342.82,-88.8 339.82,-84.8 257.18,-84.8 257.18,-48.8 366.82,-48.8 366.82,-84.8"/>
<text text-anchor="middle" x="312" y="-62.6" font-family="Times,serif" font-size="14.00">DressingModule</text>
</g>
<!-- AppModule -->
<g id="node4" class="node">
<title>AppModule</title>
<polygon fill="#8dd3c7" stroke="black" points="294.66,-149.8 291.66,-153.8 270.66,-153.8 267.66,-149.8 211.34,-149.8 211.34,-113.8 294.66,-113.8 294.66,-149.8"/>
<text text-anchor="middle" x="253" y="-127.6" font-family="Times,serif" font-size="14.00">AppModule</text>
</g>
<!-- DressingModule&#45;&gt;AppModule -->
<g id="edge1" class="edge">
<title>DressingModule&#45;&gt;AppModule</title>
<path fill="none" stroke="black" d="M276.08,-84.91C276.08,-84.91 276.08,-103.79 276.08,-103.79"/>
<polygon fill="black" stroke="black" points="272.58,-103.79 276.08,-113.79 279.58,-103.79 272.58,-103.79"/>
</g>
<!-- SaladModule -->
<g id="node2" class="node">
<title>SaladModule</title>
<polygon fill="#8dd3c7" stroke="black" points="239.16,-84.8 236.16,-88.8 215.16,-88.8 212.16,-84.8 148.84,-84.8 148.84,-48.8 239.16,-48.8 239.16,-84.8"/>
<text text-anchor="middle" x="194" y="-62.6" font-family="Times,serif" font-size="14.00">SaladModule</text>
</g>
<!-- SaladModule&#45;&gt;AppModule -->
<g id="edge2" class="edge">
<title>SaladModule&#45;&gt;AppModule</title>
<path fill="none" stroke="black" d="M225.25,-84.91C225.25,-84.91 225.25,-103.79 225.25,-103.79"/>
<polygon fill="black" stroke="black" points="221.75,-103.79 225.25,-113.79 228.75,-103.79 221.75,-103.79"/>
</g>
<!-- ToppingModule -->
<g id="node3" class="node">
<title>ToppingModule</title>
<polygon fill="#8dd3c7" stroke="black" points="130.49,-84.8 127.49,-88.8 106.49,-88.8 103.49,-84.8 23.51,-84.8 23.51,-48.8 130.49,-48.8 130.49,-84.8"/>
<text text-anchor="middle" x="77" y="-62.6" font-family="Times,serif" font-size="14.00">ToppingModule</text>
</g>
<!-- ToppingModule&#45;&gt;AppModule -->
<g id="edge3" class="edge">
<title>ToppingModule&#45;&gt;AppModule</title>
<path fill="none" stroke="black" d="M77,-84.91C77,-104.14 77,-131.8 77,-131.8 77,-131.8 201.29,-131.8 201.29,-131.8"/>
<polygon fill="black" stroke="black" points="201.29,-135.3 211.29,-131.8 201.29,-128.3 201.29,-135.3"/>
</g>
<!-- AppService -->
<g id="node5" class="node">
<title>AppService</title>
<ellipse fill="#fdb462" stroke="black" cx="448" cy="-66.8" rx="56.75" ry="18"/>
<text text-anchor="middle" x="448" y="-62.6" font-family="Times,serif" font-size="14.00">AppService</text>
</g>
<!-- AppService&#45;&gt;AppModule -->
<g id="edge4" class="edge">
<title>AppService&#45;&gt;AppModule</title>
<path fill="none" stroke="black" d="M448,-84.91C448,-104.14 448,-131.8 448,-131.8 448,-131.8 304.83,-131.8 304.83,-131.8"/>
<polygon fill="black" stroke="black" points="304.83,-128.3 294.83,-131.8 304.83,-135.3 304.83,-128.3"/>
</g>
</g>
</svg>
