<?xml version="1.0" encoding="UTF-8" standalone="no"?>
<!DOCTYPE svg PUBLIC "-//W3C//DTD SVG 1.1//EN"
 "http://www.w3.org/Graphics/SVG/1.1/DTD/svg11.dtd">
<!-- Generated by graphviz version 5.0.0 (20220707.1540)
 -->
<!-- Title: dependencies Pages: 1 -->
<svg width="908pt" height="326pt"
 viewBox="0.00 0.00 908.00 325.80" xmlns="http://www.w3.org/2000/svg" xmlns:xlink="http://www.w3.org/1999/xlink">
<g id="graph0" class="graph" transform="scale(1 1) rotate(0) translate(4 321.8)">
<title>dependencies</title>
<polygon fill="white" stroke="transparent" points="-4,4 -4,-321.8 904,-321.8 904,4 -4,4"/>
<text text-anchor="middle" x="450" y="-8.2" font-family="sans-serif" font-size="14.00">dependencies</text>
<g id="clust1" class="cluster">
<title>cluster_AppModule</title>
<polygon fill="none" stroke="black" stroke-dasharray="1,5" points="170,-108.8 170,-309.8 574,-309.8 574,-108.8 170,-108.8"/>
</g>
<g id="clust3" class="cluster">
<title>cluster_AppModule_imports</title>
<polygon fill="none" stroke="black" points="316,-116.8 316,-244.8 566,-244.8 566,-116.8 316,-116.8"/>
</g>
<g id="clust6" class="cluster">
<title>cluster_AppModule_providers</title>
<polygon fill="none" stroke="black" points="178,-192.8 178,-244.8 308,-244.8 308,-192.8 178,-192.8"/>
</g>
<g id="clust7" class="cluster">
<title>cluster_DressingModule</title>
<polygon fill="none" stroke="black" stroke-dasharray="1,5" points="289,-32.8 289,-100.8 469,-100.8 469,-32.8 289,-32.8"/>
</g>
<g id="clust12" class="cluster">
<title>cluster_DressingModule_providers</title>
<polygon fill="none" stroke="black" points="297,-40.8 297,-92.8 461,-92.8 461,-40.8 297,-40.8"/>
</g>
<g id="clust13" class="cluster">
<title>cluster_SaladModule</title>
<polygon fill="none" stroke="black" stroke-dasharray="1,5" points="8,-108.8 8,-176.8 162,-176.8 162,-108.8 8,-108.8"/>
</g>
<g id="clust18" class="cluster">
<title>cluster_SaladModule_providers</title>
<polygon fill="none" stroke="black" points="16,-116.8 16,-168.8 154,-168.8 154,-116.8 16,-116.8"/>
</g>
<g id="clust19" class="cluster">
<title>cluster_ToppingModule</title>
<polygon fill="none" stroke="black" stroke-dasharray="1,5" points="582,-184.8 582,-252.8 892,-252.8 892,-184.8 582,-184.8"/>
</g>
<g id="clust22" class="cluster">
<title>cluster_ToppingModule_exports</title>
<polygon fill="none" stroke="black" points="760,-192.8 760,-244.8 884,-244.8 884,-192.8 760,-192.8"/>
</g>
<g id="clust24" class="cluster">
<title>cluster_ToppingModule_providers</title>
<polygon fill="none" stroke="black" points="590,-192.8 590,-244.8 752,-244.8 752,-192.8 590,-192.8"/>
</g>
<!-- DressingModule -->
<g id="node1" class="node">
<title>DressingModule</title>
<polygon fill="#8dd3c7" stroke="black" points="433.82,-160.8 430.82,-164.8 409.82,-164.8 406.82,-160.8 324.18,-160.8 324.18,-124.8 433.82,-124.8 433.82,-160.8"/>
<text text-anchor="middle" x="379" y="-138.6" font-family="Times,serif" font-size="14.00">DressingModule</text>
</g>
<!-- AppModule -->
<g id="node4" class="node">
<title>AppModule</title>
<polygon fill="#8dd3c7" stroke="black" points="442.66,-301.8 439.66,-305.8 418.66,-305.8 415.66,-301.8 359.34,-301.8 359.34,-265.8 442.66,-265.8 442.66,-301.8"/>
<text text-anchor="middle" x="401" y="-279.6" font-family="Times,serif" font-size="14.00">AppModule</text>
</g>
<!-- DressingModule&#45;&gt;AppModule -->
<g id="edge1" class="edge">
<title>DressingModule&#45;&gt;AppModule</title>
<path fill="none" stroke="black" d="M423.99,-160.94C423.99,-160.94 423.99,-255.73 423.99,-255.73"/>
<polygon fill="black" stroke="black" points="420.49,-255.72 423.99,-265.73 427.49,-255.73 420.49,-255.72"/>
</g>
<!-- SaladModule -->
<g id="node2" class="node">
<title>SaladModule</title>
<polygon fill="#8dd3c7" stroke="black" points="414.16,-236.8 411.16,-240.8 390.16,-240.8 387.16,-236.8 323.84,-236.8 323.84,-200.8 414.16,-200.8 414.16,-236.8"/>
<text text-anchor="middle" x="369" y="-214.6" font-family="Times,serif" font-size="14.00">SaladModule</text>
</g>
<!-- SaladModule&#45;&gt;AppModule -->
<g id="edge2" class="edge">
<title>SaladModule&#45;&gt;AppModule</title>
<path fill="none" stroke="black" d="M386.75,-236.91C386.75,-236.91 386.75,-255.79 386.75,-255.79"/>
<polygon fill="black" stroke="black" points="383.25,-255.79 386.75,-265.79 390.25,-255.79 383.25,-255.79"/>
</g>
<!-- ToppingModule -->
<g id="node3" class="node">
<title>ToppingModule</title>
<polygon fill="#8dd3c7" stroke="black" points="558.49,-160.8 555.49,-164.8 534.49,-164.8 531.49,-160.8 451.51,-160.8 451.51,-124.8 558.49,-124.8 558.49,-160.8"/>
<text text-anchor="middle" x="505" y="-138.6" font-family="Times,serif" font-size="14.00">ToppingModule</text>
</g>
<!-- ToppingModule&#45;&gt;SaladModule -->
<g id="edge6" class="edge">
<title>ToppingModule&#45;&gt;SaladModule</title>
<path fill="none" stroke="black" d="M487.17,-161C487.17,-185.16 487.17,-224.8 487.17,-224.8 487.17,-224.8 424.35,-224.8 424.35,-224.8"/>
<polygon fill="black" stroke="black" points="424.35,-221.3 414.35,-224.8 424.35,-228.3 424.35,-221.3"/>
</g>
<!-- ToppingModule&#45;&gt;AppModule -->
<g id="edge3" class="edge">
<title>ToppingModule&#45;&gt;AppModule</title>
<path fill="none" stroke="black" d="M451.43,-142.8C443.67,-142.8 438.25,-142.8 438.25,-142.8 438.25,-142.8 438.25,-255.66 438.25,-255.66"/>
<polygon fill="black" stroke="black" points="434.75,-255.66 438.25,-265.66 441.75,-255.66 434.75,-255.66"/>
</g>
<!-- ToppingService  -->
<g id="node8" class="node">
<title>ToppingService </title>
<polygon fill="#fb8072" stroke="black" points="876.42,-236.8 767.58,-236.8 767.58,-200.8 876.42,-200.8 876.42,-236.8"/>
<text text-anchor="middle" x="822" y="-214.6" font-family="Times,serif" font-size="14.00">ToppingService </text>
</g>
<!-- ToppingModule&#45;&gt;ToppingService  -->
<g id="edge8" class="edge">
<title>ToppingModule&#45;&gt;ToppingService </title>
<path fill="none" stroke="black" stroke-dasharray="5,2" d="M558.77,-142.8C649.22,-142.8 822,-142.8 822,-142.8 822,-142.8 822,-190.79 822,-190.79"/>
<polygon fill="black" stroke="black" points="818.5,-190.79 822,-200.79 825.5,-190.79 818.5,-190.79"/>
</g>
<!-- AppService -->
<g id="node5" class="node">
<title>AppService</title>
<ellipse fill="#fdb462" stroke="black" cx="243" cy="-218.8" rx="56.75" ry="18"/>
<text text-anchor="middle" x="243" y="-214.6" font-family="Times,serif" font-size="14.00">AppService</text>
</g>
<!-- AppService&#45;&gt;AppModule -->
<g id="edge4" class="edge">
<title>AppService&#45;&gt;AppModule</title>
<path fill="none" stroke="black" d="M243,-236.91C243,-256.14 243,-283.8 243,-283.8 243,-283.8 349.07,-283.8 349.07,-283.8"/>
<polygon fill="black" stroke="black" points="349.07,-287.3 359.07,-283.8 349.07,-280.3 349.07,-287.3"/>
</g>
<!-- DressingService -->
<g id="node6" class="node">
<title>DressingService</title>
<ellipse fill="#fdb462" stroke="black" cx="379" cy="-66.8" rx="74.15" ry="18"/>
<text text-anchor="middle" x="379" y="-62.6" font-family="Times,serif" font-size="14.00">DressingService</text>
</g>
<!-- DressingService&#45;&gt;DressingModule -->
<g id="edge5" class="edge">
<title>DressingService&#45;&gt;DressingModule</title>
<path fill="none" stroke="black" d="M379,-84.81C379,-84.81 379,-114.65 379,-114.65"/>
<polygon fill="black" stroke="black" points="375.5,-114.65 379,-124.65 382.5,-114.65 375.5,-114.65"/>
</g>
<!-- SaladService -->
<g id="node7" class="node">
<title>SaladService</title>
<ellipse fill="#fdb462" stroke="black" cx="85" cy="-142.8" rx="61.4" ry="18"/>
<text text-anchor="middle" x="85" y="-138.6" font-family="Times,serif" font-size="14.00">SaladService</text>
</g>
<!-- SaladService&#45;&gt;SaladModule -->
<g id="edge7" class="edge">
<title>SaladService&#45;&gt;SaladModule</title>
<path fill="none" stroke="black" d="M146.72,-142.8C214.59,-142.8 314.17,-142.8 314.17,-142.8 314.17,-142.8 314.17,-218.8 314.17,-218.8 314.17,-218.8 315.13,-218.8 315.13,-218.8"/>
<polygon fill="black" stroke="black" points="313.72,-222.3 323.72,-218.8 313.72,-215.3 313.72,-222.3"/>
</g>
<!-- ToppingService -->
<g id="node9" class="node">
<title>ToppingService</title>
<ellipse fill="#fdb462" stroke="black" cx="671" cy="-218.8" rx="72.94" ry="18"/>
<text text-anchor="middle" x="671" y="-214.6" font-family="Times,serif" font-size="14.00">ToppingService</text>
</g>
<!-- ToppingService&#45;&gt;ToppingModule -->
<g id="edge9" class="edge">
<title>ToppingService&#45;&gt;ToppingModule</title>
<path fill="none" stroke="black" d="M602.12,-212.8C563.43,-212.8 522.83,-212.8 522.83,-212.8 522.83,-212.8 522.83,-170.83 522.83,-170.83"/>
<polygon fill="black" stroke="black" points="526.33,-170.83 522.83,-160.83 519.33,-170.83 526.33,-170.83"/>
</g>
</g>
</svg>
